<svg width="25" height="5" viewBox="0 0 25 5" fill="none" xmlns="http://www.w3.org/2000/svg">
<path d="M2.15124 0.00752253C2.20578 0.00725763 2.20578 0.00725763 2.26142 0.00698737C2.38307 0.00653074 2.5047 0.00685634 2.62635 0.00717991C2.71452 0.00701351 2.8027 0.0067993 2.89087 0.00654143C3.13304 0.00597446 3.37521 0.0060956 3.61737 0.00633106C3.8786 0.00646681 4.13983 0.00597065 4.40107 0.00555792C4.91282 0.00485532 5.42458 0.00475713 5.93633 0.004886C6.35232 0.00498417 6.7683 0.00488793 7.18428 0.00465333C7.24347 0.00462055 7.30266 0.00458777 7.36364 0.00455399C7.48387 0.00448725 7.60411 0.00442038 7.72434 0.00435338C8.85224 0.00375417 9.98013 0.00387359 11.108 0.00420935C12.1398 0.00449399 13.1715 0.00387431 14.2032 0.00282701C15.2626 0.0017599 16.3219 0.00130497 17.3813 0.00151196C17.9761 0.0016173 18.5708 0.00147987 19.1656 0.000701524C19.672 4.55342e-05 20.1784 -3.22407e-05 20.6847 0.00063489C20.9431 0.000959367 21.2014 0.00101938 21.4597 0.000359373C21.6963 -0.000238196 21.9329 -6.83638e-05 22.1696 0.000704247C22.255 0.000850171 22.3404 0.000719262 22.4259 0.00027818C23.0833 -0.00287908 23.6143 0.0504197 24.1495 0.517231C24.1796 0.541512 24.2096 0.565793 24.2406 0.59081C24.6234 0.923389 24.866 1.42427 24.9782 1.94923C24.9981 2.13127 25.0015 2.30983 24.9995 2.49312C24.9991 2.5415 24.9986 2.58988 24.9982 2.63972C24.9827 3.29693 24.777 3.76894 24.3933 4.26246C23.9375 4.7469 23.4224 4.99707 22.7948 4.99248C22.7584 4.99265 22.7221 4.99283 22.6847 4.99301C22.5634 4.99347 22.4422 4.99314 22.3209 4.99282C22.2329 4.99299 22.1449 4.9932 22.0568 4.99346C21.8153 4.99403 21.5739 4.9939 21.3323 4.99367C21.0717 4.99353 20.8112 4.99403 20.5506 4.99444C20.0401 4.99514 19.5297 4.99524 19.0193 4.99511C18.6044 4.99502 18.1895 4.99511 17.7746 4.99535C17.6861 4.9954 17.6861 4.9954 17.5957 4.99545C17.4758 4.99551 17.3558 4.99558 17.2359 4.99565C16.1109 4.99625 14.9859 4.99613 13.8609 4.99579C12.8319 4.99551 11.8028 4.99613 10.7738 4.99717C9.71704 4.99824 8.66031 4.9987 7.60359 4.99849C7.01036 4.99838 6.41713 4.99852 5.8239 4.9993C5.31885 4.99995 4.81381 5.00003 4.30876 4.99937C4.05114 4.99904 3.79352 4.99898 3.5359 4.99964C3.2999 5.00024 3.06391 5.00007 2.82792 4.9993C2.7427 4.99915 2.65749 4.99928 2.57227 4.99972C1.91551 5.00288 1.38511 4.94908 0.850455 4.48277C0.820421 4.45849 0.790387 4.43421 0.759443 4.40919C0.376643 4.07661 0.134024 3.57573 0.0218267 3.05077C0.00188564 2.86873 -0.00150108 2.69017 0.000501694 2.50688C0.000941522 2.4585 0.00138135 2.41012 0.00183451 2.36028C0.0173316 1.70307 0.222955 1.23106 0.606741 0.737538C1.04311 0.27372 1.54639 0.00312172 2.15124 0.00752253Z" fill="#8502FF"/>
</svg>
